<svg height="24" viewBox="0 0 24 24" width="24" xmlns="http://www.w3.org/2000/svg">
  <rect height="24" rx="3" width="24"/>
  <path
    d="M16.9921 18.6728L18.655 17.0099L18.0694 14.8822L18.3245 14.2729L20.25 13.1864V10.8348L18.33 9.7438L18.0791 9.1355L18.6721 7.00677L17.0081 5.34512L14.8802 5.93061L14.2722 5.67568L13.1856 3.75H10.8341L9.74304 5.67003L9.13489 5.92085L7.00649 5.32711L5.34503 6.98857L5.93061 9.11676L5.67568 9.72476L3.75 10.8114V13.1622L5.6683 14.2557L5.91939 14.8645L5.32648 16.9929L6.98857 18.655L9.11676 18.0694L9.72483 18.3243L10.8114 20.2492H13.1624L14.2551 18.3309L14.8637 18.0799L16.9921 18.6728ZM17.1395 13.2192L16.4856 14.7808L16.9772 16.5664L16.5508 16.9927L14.769 16.4964L13.2067 17.1407L12.2905 18.7492H11.6872L10.7786 17.1396L9.21866 16.4856L7.4321 16.9772L7.00652 16.5516L7.50289 14.7698L6.85861 13.2076L5.25 12.2907V11.6873L6.86032 10.7786L7.5144 9.21866L7.02281 7.4321L7.44751 7.00741L9.22932 7.50446L10.7922 6.85991L11.707 5.25H12.3097L13.2183 6.86032L14.7783 7.5144L16.5652 7.02272L16.9919 7.44874L16.4956 9.23022L17.1401 10.7929L18.75 11.7077V12.3104L17.1395 13.2192ZM12 15C10.3431 15 9 13.6569 9 12C9 10.3431 10.3431 9 12 9C13.6569 9 15 10.3431 15 12C15 13.6569 13.6569 15 12 15ZM13.5 12C13.5 12.8284 12.8284 13.5 12 13.5C11.1716 13.5 10.5 12.8284 10.5 12C10.5 11.1716 11.1716 10.5 12 10.5C12.8284 10.5 13.5 11.1716 13.5 12Z"
    fill="#FCFCFC"/>
</svg>
