<svg fill="none" viewBox="0 0 50 50" xmlns="http://www.w3.org/2000/svg">
  <path
    d="M46.9806 1.99067C46.7208 1.99841 46.4742 2.10699 46.2931 2.2934L40.5313 8.05512C36.4392 4.30277 30.9862 2.00043 25.0001 2.00043C12.3096 2.00043 2.00008 12.31 2.00008 25.0004C2.00008 30.9857 4.30988 36.4319 8.06258 40.5239L2.29305 46.2934C2.19708 46.3855 2.12046 46.4959 2.06767 46.618C2.01489 46.7402 1.987 46.8716 1.98565 47.0047C1.98429 47.1377 2.0095 47.2697 2.05979 47.3928C2.11008 47.516 2.18444 47.6279 2.27852 47.722C2.3726 47.8161 2.4845 47.8904 2.60768 47.9407C2.73086 47.991 2.86283 48.0162 2.99587 48.0149C3.12891 48.0135 3.26034 47.9856 3.38247 47.9328C3.5046 47.8801 3.61497 47.8034 3.70712 47.7075L47.7071 3.70747C47.8516 3.567 47.9503 3.38616 47.9903 3.18864C48.0302 2.99112 48.0096 2.78614 47.931 2.60055C47.8525 2.41497 47.7197 2.25744 47.5501 2.14861C47.3805 2.03978 47.182 1.98473 46.9806 1.99067ZM25.0001 4.00043C30.445 4.00043 35.3849 6.07816 39.1153 9.47114L9.47079 39.1157C6.07681 35.385 4.00008 30.4454 4.00008 25.0004C4.00008 13.3909 13.3905 4.00043 25.0001 4.00043ZM43.252 10.9965L41.8087 12.4399C44.5177 16.0439 46.0001 20.3864 46.0001 25.0004C46.0001 36.61 36.6096 46.0004 25.0001 46.0004C20.3851 46.0004 16.0425 44.518 12.4395 41.809L10.9962 43.2524C14.9648 46.3161 19.7914 47.978 24.9141 47.9965C24.9193 47.9972 24.9246 47.9979 24.9298 47.9985C24.9534 47.9986 24.9765 48.0004 25.0001 48.0004C37.6906 48.0004 48.0001 37.6909 48.0001 25.0004C48.0001 24.967 47.9963 24.9343 47.9962 24.9008C47.9962 24.9002 47.9962 24.8995 47.9962 24.8989C47.9743 19.7829 46.3136 14.9611 43.252 10.9965Z"
    fill="#C7C9D9"/>
</svg>
