<svg fill="none" height="16" viewBox="0 0 16 16" width="16" xmlns="http://www.w3.org/2000/svg">
  <rect fill="white" height="16" rx="2" width="16"/>
  <path clip-rule="evenodd"
        d="M7.46967 2.46967C7.76256 2.17678 8.23744 2.17678 8.53033 2.46967L11.5303 5.46967C11.8232 5.76256 11.8232 6.23744 11.5303 6.53033C11.2374 6.82322 10.7626 6.82322 10.4697 6.53033L8 4.06066L5.53033 6.53033C5.23744 6.82322 4.76256 6.82322 4.46967 6.53033C4.17678 6.23744 4.17678 5.76256 4.46967 5.46967L7.46967 2.46967Z"
        fill="#AAB5C9" fill-rule="evenodd"/>
  <path clip-rule="evenodd"
        d="M8.53033 13.5303C8.23744 13.8232 7.76256 13.8232 7.46967 13.5303L4.46967 10.5303C4.17678 10.2374 4.17678 9.76256 4.46967 9.46967C4.76256 9.17678 5.23744 9.17678 5.53033 9.46967L8 11.9393L10.4697 9.46967C10.7626 9.17678 11.2374 9.17678 11.5303 9.46967C11.8232 9.76256 11.8232 10.2374 11.5303 10.5303L8.53033 13.5303Z"
        fill="#AAB5C9" fill-rule="evenodd"/>
</svg>
